<svg id="svg" version="1.1" xmlns="http://www.w3.org/2000/svg" xmlns:xlink="http://www.w3.org/1999/xlink" width="400" height="400" viewBox="0, 0, 400,400"><g id="svgg"><path id="path0" d="M0.000 200.000 L 0.000 400.000 200.000 400.000 L 400.000 400.000 400.000 200.000 L 400.000 0.000 200.000 0.000 L 0.000 0.000 0.000 200.000 M209.344 38.596 C 210.255 38.902,212.620 39.271,214.600 39.417 C 216.789 39.577,218.835 39.977,219.819 40.437 C 220.710 40.853,222.330 41.303,223.419 41.437 C 224.509 41.571,225.857 42.000,226.416 42.390 C 226.974 42.780,228.054 43.223,228.816 43.375 C 230.705 43.750,232.400 44.431,232.400 44.813 C 232.400 44.987,233.104 45.249,233.964 45.394 C 234.825 45.539,235.833 45.995,236.206 46.406 C 236.578 46.818,237.382 47.264,237.992 47.398 C 238.602 47.532,239.699 48.082,240.428 48.621 C 241.158 49.159,241.945 49.600,242.178 49.600 C 242.410 49.601,243.123 50.051,243.762 50.600 C 244.401 51.150,245.165 51.600,245.459 51.600 C 245.753 51.600,246.218 51.960,246.493 52.400 C 246.768 52.840,247.179 53.200,247.407 53.200 C 247.953 53.200,252.109 56.322,252.520 57.040 C 252.696 57.348,253.022 57.600,253.245 57.600 C 254.333 57.600,266.437 70.627,267.002 72.406 C 267.141 72.843,267.431 73.200,267.647 73.200 C 267.864 73.200,268.304 73.830,268.626 74.600 C 268.948 75.370,269.369 76.000,269.562 76.000 C 269.755 76.000,270.195 76.705,270.540 77.566 C 270.884 78.427,271.349 79.245,271.572 79.383 C 271.795 79.520,272.338 80.391,272.779 81.317 C 273.219 82.242,273.752 83.270,273.963 83.600 C 274.837 84.970,276.800 89.515,276.800 90.169 C 276.800 90.556,277.151 91.320,277.580 91.865 C 278.009 92.410,278.480 93.699,278.627 94.728 C 278.774 95.758,279.224 97.147,279.627 97.815 C 280.031 98.484,280.484 100.282,280.636 101.815 C 280.788 103.347,281.283 105.500,281.736 106.600 C 282.506 108.469,282.560 109.396,282.560 120.800 C 282.560 132.204,282.506 133.131,281.736 135.000 C 281.283 136.100,280.788 138.253,280.636 139.785 C 280.484 141.317,280.032 143.117,279.631 143.785 C 279.230 144.453,278.781 145.802,278.633 146.782 C 278.485 147.761,278.032 149.111,277.625 149.782 C 277.219 150.452,276.757 151.630,276.600 152.400 C 276.442 153.170,276.004 154.160,275.625 154.600 C 275.246 155.040,274.718 156.165,274.452 157.100 C 274.186 158.035,273.820 158.800,273.638 158.800 C 273.457 158.800,273.005 159.594,272.635 160.565 C 272.264 161.535,271.700 162.430,271.380 162.552 C 271.061 162.675,270.800 163.053,270.800 163.392 C 270.800 164.110,267.685 168.800,267.208 168.800 C 267.031 168.800,266.774 169.250,266.636 169.800 C 266.498 170.350,266.213 170.800,266.003 170.800 C 265.792 170.800,265.356 171.295,265.032 171.900 C 264.708 172.505,263.534 173.976,262.422 175.168 C 261.310 176.360,260.400 177.409,260.400 177.499 C 260.400 177.780,254.899 182.809,251.547 185.593 C 250.748 186.257,249.803 186.800,249.447 186.800 C 249.091 186.800,248.800 187.074,248.800 187.409 C 248.800 187.743,248.314 188.238,247.719 188.509 C 247.124 188.779,246.233 189.405,245.737 189.900 C 245.242 190.395,244.399 190.800,243.865 190.800 C 243.248 190.800,242.821 191.076,242.695 191.558 C 242.580 191.999,241.993 192.426,241.290 192.580 C 240.626 192.726,239.776 193.185,239.400 193.600 C 239.024 194.015,238.151 194.474,237.459 194.621 C 236.766 194.767,235.840 195.208,235.400 195.600 C 234.960 195.992,233.977 196.446,233.216 196.607 C 232.454 196.768,231.357 197.251,230.777 197.680 C 230.197 198.109,228.930 198.565,227.961 198.694 C 226.993 198.823,225.747 199.263,225.193 199.671 C 224.573 200.128,223.152 200.509,221.493 200.664 C 220.012 200.803,218.800 201.056,218.800 201.227 C 218.800 203.782,184.654 203.947,181.600 201.406 C 181.270 201.132,179.830 200.792,178.400 200.651 C 176.850 200.499,175.395 200.098,174.797 199.658 C 174.246 199.252,172.954 198.794,171.926 198.640 C 170.897 198.486,169.639 198.032,169.128 197.632 C 168.618 197.232,167.570 196.771,166.800 196.609 C 166.030 196.447,165.040 195.992,164.600 195.600 C 164.160 195.208,163.227 194.765,162.528 194.617 C 161.828 194.470,161.028 194.075,160.750 193.740 C 160.473 193.405,159.560 192.857,158.723 192.522 C 157.885 192.187,157.200 191.685,157.200 191.407 C 157.200 191.128,156.703 190.801,156.095 190.679 C 155.053 190.471,154.075 189.799,151.757 187.700 C 151.211 187.205,150.567 186.800,150.326 186.800 C 149.079 186.800,138.018 175.981,135.150 171.956 C 134.187 170.606,132.995 169.131,132.500 168.678 C 132.005 168.226,131.600 167.632,131.600 167.359 C 131.600 167.085,131.150 166.327,130.600 165.673 C 130.050 165.019,129.600 164.299,129.600 164.073 C 129.600 163.847,129.162 163.140,128.626 162.504 C 128.090 161.867,127.524 160.837,127.368 160.215 C 127.212 159.593,126.769 158.769,126.383 158.383 C 125.997 157.997,125.555 157.105,125.400 156.400 C 125.245 155.695,124.804 154.804,124.420 154.420 C 124.036 154.036,123.606 152.998,123.464 152.113 C 123.323 151.228,122.945 150.287,122.626 150.021 C 122.306 149.756,121.845 148.517,121.602 147.269 C 121.359 146.021,120.831 144.370,120.428 143.600 C 120.026 142.830,119.571 140.868,119.418 139.240 C 119.262 137.585,118.844 135.829,118.470 135.258 C 117.467 133.727,117.456 108.427,118.458 106.600 C 118.820 105.940,119.242 104.140,119.395 102.600 C 119.549 101.060,120.016 99.071,120.434 98.179 C 120.852 97.288,121.354 95.707,121.548 94.665 C 121.743 93.623,122.186 92.458,122.532 92.075 C 122.878 91.692,123.286 90.602,123.438 89.652 C 123.590 88.702,124.016 87.627,124.384 87.262 C 124.753 86.898,125.272 85.843,125.538 84.917 C 125.804 83.991,126.192 83.129,126.400 83.000 C 126.607 82.872,127.132 81.964,127.566 80.983 C 128.000 80.003,128.531 79.200,128.746 79.200 C 128.961 79.200,129.250 78.683,129.389 78.050 C 129.528 77.418,130.082 76.486,130.621 75.981 C 131.159 75.475,131.600 74.893,131.600 74.688 C 131.600 74.483,132.005 73.806,132.500 73.183 C 132.995 72.560,134.026 71.184,134.791 70.125 C 136.449 67.831,136.619 67.642,141.325 62.885 C 145.585 58.578,145.319 58.825,149.136 55.645 C 150.751 54.300,152.317 53.200,152.616 53.200 C 152.916 53.200,153.304 52.954,153.480 52.654 C 153.656 52.354,154.353 51.826,155.029 51.481 C 155.705 51.135,156.483 50.582,156.757 50.252 C 157.031 49.922,157.768 49.539,158.394 49.401 C 159.021 49.264,159.626 48.910,159.739 48.616 C 159.852 48.321,160.632 47.856,161.472 47.582 C 162.312 47.308,163.413 46.762,163.919 46.369 C 164.424 45.977,165.407 45.530,166.103 45.377 C 166.799 45.225,167.826 44.779,168.384 44.387 C 168.943 43.995,170.120 43.553,171.000 43.404 C 171.880 43.254,172.885 42.877,173.233 42.565 C 173.581 42.253,174.931 41.806,176.233 41.572 C 177.535 41.338,179.320 40.816,180.200 40.412 C 181.169 39.967,183.298 39.568,185.597 39.401 C 187.685 39.249,189.737 38.941,190.156 38.716 C 192.314 37.561,206.010 37.475,209.344 38.596 M172.302 199.931 C 172.700 200.184,172.783 208.549,172.702 240.425 L 172.600 280.600 149.645 280.703 C 133.024 280.778,126.540 280.682,126.145 280.354 C 125.260 279.620,125.342 201.115,126.229 200.229 C 126.919 199.538,171.232 199.252,172.302 199.931 M98.040 204.851 C 100.488 205.663,100.399 204.919,100.406 224.776 C 100.412 241.775,100.689 246.649,101.418 242.572 C 101.572 241.708,102.017 240.640,102.406 240.200 C 102.795 239.760,103.236 238.823,103.384 238.119 C 103.533 237.414,103.979 236.424,104.376 235.919 C 104.772 235.413,105.222 234.423,105.376 233.719 C 105.529 233.014,105.979 232.024,106.376 231.519 C 106.772 231.013,107.222 230.023,107.376 229.319 C 107.529 228.614,107.992 227.610,108.403 227.087 C 108.814 226.565,109.272 225.651,109.421 225.058 C 109.832 223.420,110.767 223.164,115.897 223.287 L 120.600 223.400 120.580 225.551 C 120.565 227.222,120.377 227.851,119.741 228.367 C 119.290 228.732,118.795 229.699,118.642 230.517 C 118.489 231.334,118.027 232.317,117.617 232.702 C 117.206 233.086,116.744 234.080,116.589 234.911 C 116.434 235.742,115.992 236.590,115.607 236.796 C 115.214 237.006,114.798 237.851,114.660 238.718 C 114.523 239.569,114.070 240.575,113.652 240.953 C 113.234 241.331,112.778 242.208,112.640 242.901 C 112.501 243.594,112.055 244.530,111.649 244.981 C 109.842 246.985,109.834 252.542,111.635 254.600 C 112.020 255.040,112.458 256.063,112.607 256.874 C 112.757 257.684,113.208 258.646,113.610 259.009 C 114.013 259.373,114.464 260.394,114.613 261.278 C 114.762 262.162,115.216 263.216,115.620 263.620 C 116.024 264.024,116.480 265.020,116.632 265.832 C 116.785 266.645,117.235 267.635,117.632 268.032 C 118.030 268.430,118.480 269.420,118.632 270.232 C 118.785 271.045,119.235 272.035,119.632 272.432 C 120.030 272.830,120.478 273.840,120.627 274.678 C 120.777 275.515,121.210 276.560,121.590 277.000 C 124.113 279.921,123.002 280.800,116.787 280.800 C 110.767 280.800,110.193 280.601,109.572 278.297 C 109.322 277.368,108.801 276.156,108.414 275.604 C 108.027 275.052,107.592 273.948,107.447 273.151 C 107.302 272.355,106.846 271.314,106.434 270.839 C 106.022 270.364,105.560 269.305,105.408 268.487 C 105.257 267.669,104.861 266.698,104.530 266.329 C 104.199 265.959,103.758 264.900,103.549 263.973 C 103.341 263.047,102.833 261.859,102.419 261.333 C 102.005 260.807,101.531 259.617,101.366 258.688 C 100.775 255.359,100.481 258.765,100.440 269.420 C 100.411 276.945,100.267 279.973,99.920 280.320 C 99.114 281.126,89.252 280.971,88.331 280.138 C 87.212 279.125,87.189 206.896,88.308 205.883 C 89.924 204.420,95.091 203.873,98.040 204.851 M231.297 208.216 C 232.404 208.641,232.795 211.011,232.798 217.300 L 232.800 223.200 236.474 223.200 C 241.082 223.200,242.000 223.812,242.000 226.886 C 242.000 231.162,240.646 232.400,235.967 232.400 L 232.800 232.400 232.800 251.750 L 232.800 271.100 234.050 271.350 C 234.737 271.488,236.615 271.600,238.221 271.600 C 241.854 271.600,242.402 272.036,242.396 274.929 C 242.390 277.585,239.788 280.800,237.643 280.800 C 236.960 280.800,236.400 280.966,236.400 281.169 C 236.400 282.486,229.833 282.697,228.427 281.425 C 228.048 281.081,227.352 280.800,226.882 280.800 C 225.994 280.800,223.200 278.517,223.200 277.792 C 223.200 277.564,222.853 277.081,222.429 276.717 C 221.980 276.333,221.537 275.253,221.369 274.135 C 221.211 273.078,220.838 271.631,220.541 270.919 C 220.113 269.896,220.000 265.781,220.000 251.246 L 220.000 232.867 218.300 232.302 C 216.169 231.594,215.614 230.548,215.606 227.231 C 215.598 223.863,216.166 223.200,219.062 223.200 C 220.238 223.200,221.205 223.155,221.211 223.100 C 221.217 223.045,221.384 221.320,221.583 219.266 C 221.782 217.212,222.215 214.692,222.546 213.666 C 222.877 212.640,223.349 211.025,223.596 210.079 C 224.206 207.739,227.794 206.871,231.297 208.216 M136.686 220.647 C 136.269 221.064,136.884 223.284,137.622 224.022 C 138.005 224.405,138.448 225.322,138.606 226.059 C 138.764 226.797,139.224 227.714,139.628 228.098 C 140.032 228.483,140.479 229.416,140.621 230.172 C 140.763 230.929,141.218 231.854,141.632 232.229 C 142.046 232.603,142.496 233.503,142.632 234.229 C 142.768 234.954,143.224 235.860,143.646 236.241 C 144.067 236.623,144.521 237.613,144.653 238.443 C 144.786 239.272,145.143 240.046,145.447 240.163 C 146.161 240.437,146.154 241.602,145.433 242.631 C 145.121 243.077,144.740 244.112,144.587 244.931 C 144.433 245.751,143.989 246.592,143.600 246.800 C 143.211 247.008,142.768 247.858,142.614 248.689 C 142.461 249.520,142.009 250.560,141.611 251.000 C 141.212 251.440,140.768 252.361,140.623 253.046 C 140.479 253.731,140.030 254.646,139.626 255.079 C 139.223 255.513,138.762 256.482,138.603 257.233 C 138.444 257.985,138.005 258.960,137.628 259.400 C 137.250 259.840,136.747 260.875,136.508 261.700 L 136.075 263.200 139.590 263.200 L 143.105 263.200 143.544 261.456 C 143.786 260.497,144.243 259.496,144.560 259.233 C 144.878 258.969,145.256 258.050,145.402 257.189 C 145.547 256.328,145.997 255.204,146.400 254.691 C 146.804 254.177,147.257 253.101,147.408 252.300 C 147.960 249.357,149.458 248.817,150.636 251.137 C 150.875 251.608,151.354 252.311,151.700 252.697 C 152.046 253.084,152.454 254.244,152.606 255.276 C 152.759 256.308,153.212 257.449,153.613 257.811 C 154.014 258.174,154.466 259.209,154.619 260.110 C 155.043 262.624,155.988 263.171,159.929 263.187 L 163.258 263.200 162.474 262.203 C 162.043 261.655,161.575 260.593,161.435 259.844 C 161.294 259.094,160.923 258.268,160.610 258.008 C 160.297 257.748,159.826 256.875,159.562 256.068 C 159.299 255.261,158.750 254.171,158.342 253.646 C 157.934 253.121,157.600 252.391,157.600 252.024 C 157.600 251.656,157.150 250.745,156.600 250.000 C 156.050 249.255,155.600 248.361,155.600 248.015 C 155.600 247.669,155.115 246.671,154.521 245.798 C 153.079 243.675,152.922 239.401,154.232 237.932 C 154.690 237.420,155.276 236.254,155.536 235.341 C 155.795 234.429,156.253 233.589,156.553 233.473 C 156.853 233.358,157.222 232.609,157.372 231.810 C 157.522 231.010,157.954 230.046,158.332 229.668 C 158.710 229.290,159.250 228.211,159.532 227.269 C 159.814 226.328,160.287 225.465,160.583 225.351 C 160.879 225.238,161.239 224.517,161.383 223.750 C 161.527 222.983,161.983 222.017,162.397 221.603 C 163.133 220.867,163.103 220.845,161.007 220.584 C 156.891 220.069,154.931 220.618,154.652 222.364 C 154.520 223.189,154.068 224.176,153.648 224.557 C 153.228 224.937,152.766 226.035,152.622 226.996 C 152.477 227.957,152.046 229.161,151.664 229.672 C 151.281 230.182,150.754 231.095,150.493 231.700 C 149.477 234.051,147.218 232.436,147.202 229.349 C 147.201 229.101,146.940 228.682,146.622 228.418 C 146.304 228.154,145.842 226.965,145.595 225.776 C 145.348 224.587,144.960 223.499,144.732 223.358 C 144.505 223.217,144.064 222.494,143.754 221.751 L 143.189 220.400 140.061 220.400 C 138.341 220.400,136.822 220.511,136.686 220.647 M201.256 222.791 C 202.215 223.226,203.341 223.586,203.757 223.591 C 204.609 223.601,208.800 227.020,208.800 227.705 C 208.800 227.949,209.175 228.547,209.633 229.035 C 210.091 229.522,210.569 230.704,210.695 231.661 C 210.821 232.617,211.211 233.843,211.562 234.384 C 212.539 235.890,212.490 248.035,211.500 249.961 C 211.115 250.710,210.800 251.822,210.800 252.433 C 210.800 254.698,210.373 254.800,200.923 254.800 L 192.302 254.800 192.468 262.142 L 192.633 269.483 193.775 270.542 C 195.488 272.129,199.028 272.104,199.638 270.501 C 199.868 269.896,200.291 269.131,200.579 268.801 C 200.866 268.470,201.188 267.253,201.293 266.096 C 201.585 262.875,202.227 262.400,206.293 262.400 C 210.722 262.400,212.273 263.602,211.848 266.705 C 211.707 267.729,211.414 268.746,211.196 268.964 C 210.978 269.182,210.800 270.152,210.800 271.120 C 210.800 272.842,209.814 275.600,209.198 275.600 C 209.027 275.600,208.774 276.050,208.636 276.600 C 208.414 277.484,206.981 278.689,204.243 280.294 C 203.779 280.566,202.874 280.791,202.231 280.794 C 201.589 280.797,200.718 281.112,200.296 281.494 C 199.195 282.490,193.415 282.494,191.897 281.500 C 191.309 281.115,190.364 280.800,189.796 280.800 C 189.228 280.800,188.314 280.350,187.764 279.800 C 187.214 279.250,186.655 278.800,186.522 278.800 C 186.091 278.800,183.600 276.053,183.600 275.578 C 183.600 275.323,183.168 274.602,182.640 273.974 C 182.040 273.262,181.571 272.042,181.390 270.726 C 181.230 269.567,180.808 268.173,180.450 267.627 C 179.444 266.092,179.471 238.268,180.480 236.727 C 180.855 236.155,181.282 234.773,181.431 233.654 C 181.584 232.496,182.110 231.065,182.650 230.332 C 183.173 229.624,183.600 228.878,183.600 228.675 C 183.600 228.320,185.570 226.356,187.775 224.515 C 188.358 224.028,189.502 223.508,190.317 223.358 C 191.133 223.209,192.155 222.842,192.589 222.543 C 193.842 221.680,199.142 221.832,201.256 222.791 M268.000 222.600 C 268.274 222.930,268.822 223.200,269.218 223.200 C 270.167 223.200,272.283 225.003,272.635 226.110 C 272.788 226.591,273.284 227.487,273.739 228.102 C 274.466 229.085,274.563 229.782,274.548 233.910 C 274.522 241.436,273.356 243.044,268.163 242.710 C 264.005 242.443,263.834 242.225,263.663 236.960 C 263.512 232.328,263.392 232.125,261.058 232.563 C 258.777 232.991,258.800 232.735,258.800 257.339 C 258.800 274.306,258.682 279.958,258.320 280.320 C 258.000 280.640,256.231 280.800,253.000 280.800 C 249.769 280.800,248.000 280.640,247.680 280.320 C 246.986 279.626,246.986 224.374,247.680 223.680 C 247.984 223.376,249.515 223.200,251.857 223.200 C 255.986 223.200,256.787 223.683,256.812 226.189 C 256.823 227.297,256.863 227.332,257.278 226.600 C 257.979 225.364,259.622 223.950,261.050 223.353 C 261.763 223.056,262.458 222.629,262.596 222.406 C 263.004 221.746,267.423 221.904,268.000 222.600 M297.920 222.553 C 298.514 222.857,299.722 223.225,300.605 223.372 C 302.624 223.707,306.229 226.834,306.633 228.600 C 306.784 229.260,307.198 230.134,307.554 230.542 C 308.380 231.491,308.771 279.271,307.960 280.248 C 307.036 281.361,299.822 280.999,299.037 279.800 C 298.250 278.599,296.787 278.489,296.105 279.580 C 295.837 280.009,294.939 280.486,294.109 280.641 C 293.279 280.795,292.158 281.209,291.618 281.560 C 290.261 282.443,285.948 282.433,284.942 281.545 C 284.534 281.184,283.593 280.760,282.851 280.602 C 282.051 280.432,281.426 280.022,281.314 279.595 C 281.211 279.198,280.784 278.784,280.365 278.675 C 279.946 278.566,279.482 278.158,279.333 277.769 C 279.183 277.379,278.751 276.751,278.373 276.373 C 277.994 275.994,277.553 274.901,277.392 273.942 C 277.231 272.984,276.852 271.845,276.550 271.411 C 275.807 270.345,275.815 264.564,276.562 263.133 C 276.868 262.546,277.246 261.312,277.402 260.390 C 277.557 259.469,278.026 258.374,278.442 257.958 C 278.859 257.541,279.200 257.001,279.200 256.759 C 279.200 255.770,285.873 249.932,287.600 249.410 C 288.150 249.244,288.960 248.783,289.400 248.386 C 289.840 247.990,290.875 247.540,291.700 247.388 C 292.525 247.236,293.200 246.953,293.200 246.761 C 293.200 246.568,293.830 246.148,294.600 245.826 L 296.000 245.241 295.953 240.120 C 295.879 232.150,295.262 231.207,290.914 232.424 C 288.749 233.030,288.841 232.854,288.355 237.293 C 288.074 239.851,287.733 241.220,287.254 241.709 C 285.915 243.077,279.561 243.103,278.205 241.748 C 277.308 240.851,277.324 231.127,278.223 230.381 C 278.566 230.096,279.084 229.309,279.374 228.632 C 279.665 227.954,280.473 226.950,281.170 226.400 C 281.866 225.850,282.890 225.009,283.443 224.531 C 283.997 224.053,285.204 223.535,286.125 223.381 C 287.046 223.226,288.155 222.852,288.589 222.550 C 289.669 221.797,296.448 221.799,297.920 222.553 M194.405 232.720 C 192.722 233.544,192.307 235.468,192.488 241.600 L 192.600 245.400 195.799 245.519 C 200.768 245.703,200.800 245.683,200.802 242.492 C 200.808 234.126,198.558 230.689,194.405 232.720 M293.748 255.689 C 288.797 260.378,288.687 260.577,288.640 264.936 C 288.577 270.765,289.152 271.600,293.229 271.600 C 295.900 271.600,296.000 271.260,296.000 262.174 C 296.000 254.135,295.849 253.699,293.748 255.689 " stroke="none" fill="#4bf354" fill-rule="evenodd"></path><path id="path1" d="M190.759 48.209 C 187.389 48.503,184.428 48.968,183.759 49.308 C 183.122 49.633,181.340 50.114,179.800 50.378 C 178.260 50.642,176.727 51.105,176.394 51.406 C 176.060 51.708,174.893 52.155,173.800 52.400 C 172.707 52.645,171.540 53.082,171.206 53.372 C 170.873 53.662,169.901 54.124,169.046 54.398 C 168.191 54.673,166.861 55.326,166.090 55.849 C 165.319 56.372,164.471 56.800,164.206 56.800 C 163.941 56.800,163.398 57.160,163.000 57.600 C 162.602 58.040,162.029 58.400,161.727 58.400 C 161.424 58.400,160.057 59.259,158.689 60.309 C 157.320 61.358,155.750 62.505,155.200 62.856 C 153.140 64.173,147.812 69.271,144.600 72.997 C 143.500 74.274,142.240 75.705,141.800 76.178 C 141.360 76.651,140.771 77.479,140.491 78.019 C 139.885 79.189,138.284 81.539,137.467 82.459 C 137.145 82.822,136.639 83.790,136.342 84.610 C 136.045 85.430,135.577 86.187,135.301 86.293 C 135.026 86.399,134.800 86.706,134.800 86.975 C 134.800 87.244,134.351 88.350,133.801 89.432 C 133.252 90.514,132.518 92.253,132.171 93.295 C 131.823 94.338,131.385 95.286,131.196 95.402 C 131.008 95.519,130.641 96.646,130.381 97.907 C 130.121 99.168,129.675 100.656,129.389 101.213 C 129.103 101.771,128.659 103.751,128.403 105.613 C 128.147 107.476,127.701 109.900,127.412 111.000 C 126.764 113.468,126.332 120.706,126.665 123.516 L 126.911 125.600 148.023 125.600 C 159.634 125.600,169.388 125.503,169.697 125.384 C 170.169 125.203,170.113 124.385,169.346 120.284 C 167.532 110.582,168.099 107.500,171.718 107.392 C 173.556 107.338,173.706 106.891,172.588 104.800 C 169.152 98.367,167.162 85.064,169.314 82.914 C 170.339 81.890,175.676 81.730,179.600 82.606 C 187.595 84.392,187.906 84.334,186.966 81.238 C 185.215 75.467,187.828 65.849,192.888 59.445 C 194.812 57.008,199.475 52.493,200.355 52.214 C 201.638 51.807,207.352 57.701,210.190 62.360 C 210.405 62.712,210.973 63.630,211.452 64.400 C 211.932 65.170,212.455 66.427,212.615 67.194 C 212.774 67.961,213.196 69.033,213.552 69.576 C 214.073 70.371,214.211 71.808,214.259 76.921 C 214.327 84.364,214.209 84.149,217.805 83.345 C 225.753 81.569,230.819 81.446,231.839 83.004 C 232.748 84.391,232.512 95.755,231.544 97.243 C 231.201 97.769,230.790 98.920,230.631 99.800 C 230.472 100.680,229.984 102.013,229.547 102.763 C 229.110 103.513,228.514 104.818,228.223 105.663 L 227.694 107.200 229.385 107.200 C 232.323 107.200,232.526 107.731,232.333 114.928 C 232.204 119.712,232.023 121.305,231.522 122.070 C 231.167 122.612,230.814 123.583,230.738 124.228 L 230.600 125.400 252.000 125.400 L 273.400 125.400 273.368 119.400 C 273.347 115.355,273.128 112.553,272.697 110.800 C 272.346 109.370,271.936 107.030,271.787 105.600 C 271.638 104.170,271.179 102.190,270.768 101.200 C 270.356 100.210,269.825 98.503,269.587 97.406 C 269.349 96.310,268.922 95.140,268.638 94.806 C 268.354 94.473,267.892 93.348,267.611 92.308 C 267.330 91.267,266.864 90.219,266.576 89.980 C 266.287 89.741,265.940 89.039,265.805 88.422 C 265.669 87.804,265.118 86.701,264.579 85.972 C 264.041 85.242,263.600 84.422,263.600 84.151 C 263.600 83.879,263.353 83.410,263.052 83.109 C 262.750 82.808,262.203 82.030,261.835 81.380 C 259.907 77.978,256.171 73.393,251.762 69.019 C 248.513 65.795,245.176 62.815,244.273 62.332 C 243.870 62.116,243.221 61.638,242.832 61.270 C 242.443 60.901,241.517 60.240,240.774 59.800 C 240.030 59.360,238.787 58.601,238.011 58.114 C 237.235 57.627,235.970 56.934,235.200 56.574 C 234.430 56.215,233.530 55.691,233.200 55.411 C 232.870 55.130,231.880 54.676,231.000 54.400 C 230.120 54.124,229.130 53.668,228.800 53.387 C 228.470 53.105,227.390 52.663,226.400 52.405 C 225.410 52.146,224.220 51.692,223.757 51.395 C 223.293 51.099,221.763 50.650,220.357 50.399 C 218.950 50.148,217.264 49.679,216.609 49.356 C 213.800 47.974,200.314 47.376,190.759 48.209 " stroke="none" fill="#fafafa" fill-rule="evenodd"></path><path id="path2" d="M190.607 39.618 C 186.871 40.047,182.936 40.689,181.864 41.045 C 180.791 41.402,178.898 41.930,177.656 42.219 C 175.235 42.784,170.169 44.480,168.946 45.136 C 168.536 45.356,166.580 46.298,164.600 47.230 C 150.523 53.857,137.910 65.404,129.679 79.200 C 128.310 81.495,124.000 90.285,124.000 90.783 C 124.000 91.036,123.646 92.021,123.213 92.971 C 122.780 93.922,122.234 95.555,122.000 96.600 C 121.766 97.646,121.377 98.869,121.137 99.318 C 120.896 99.767,120.346 102.129,119.914 104.567 C 119.482 107.005,118.955 109.900,118.742 111.000 C 118.240 113.598,118.225 128.011,118.723 130.600 C 118.934 131.700,119.409 134.310,119.778 136.400 C 120.502 140.497,121.663 144.563,123.776 150.400 C 124.620 152.733,128.692 160.994,129.888 162.800 C 130.398 163.570,130.986 164.470,131.196 164.800 C 138.309 175.990,148.624 185.787,159.897 192.059 C 162.956 193.762,167.318 195.883,168.400 196.195 C 168.950 196.354,169.780 196.722,170.245 197.015 C 170.710 197.307,172.060 197.819,173.245 198.151 C 174.430 198.484,176.210 199.021,177.200 199.344 C 189.793 203.457,210.776 203.465,222.800 199.362 C 223.790 199.024,225.590 198.473,226.800 198.137 C 228.010 197.801,229.180 197.393,229.400 197.230 C 229.620 197.067,230.430 196.703,231.200 196.420 C 232.400 195.979,235.211 194.641,239.524 192.455 C 241.173 191.620,246.545 188.181,248.029 187.011 C 248.594 186.565,249.667 185.750,250.413 185.200 C 255.073 181.761,259.433 177.415,264.053 171.600 C 266.798 168.145,267.738 166.790,270.851 161.800 C 272.075 159.838,275.788 152.173,276.179 150.800 C 276.335 150.250,276.743 149.183,277.085 148.428 C 277.426 147.674,277.940 146.144,278.227 145.028 C 278.514 143.913,279.019 142.010,279.350 140.800 C 281.204 134.016,281.800 129.148,281.800 120.800 C 281.800 112.452,281.204 107.584,279.350 100.800 C 279.019 99.590,278.516 97.700,278.232 96.600 C 277.948 95.500,277.329 93.755,276.858 92.722 C 276.386 91.689,276.000 90.634,276.000 90.376 C 276.000 90.119,275.660 89.254,275.244 88.454 C 274.828 87.655,273.884 85.740,273.145 84.200 C 271.498 80.768,269.843 78.032,266.400 73.052 C 261.581 66.082,250.754 55.750,244.579 52.230 C 243.931 51.861,242.410 50.952,241.200 50.212 C 226.973 41.504,208.286 37.591,190.607 39.618 M204.600 46.781 C 206.140 46.971,209.200 47.341,211.400 47.602 C 214.946 48.022,219.871 49.196,223.400 50.461 C 226.985 51.747,229.532 52.767,230.600 53.345 C 231.260 53.703,231.941 53.996,232.112 53.998 C 232.398 54.000,236.704 56.382,239.258 57.950 C 245.528 61.801,251.433 66.982,256.864 73.400 C 264.275 82.157,270.318 94.133,272.206 103.800 C 272.507 105.340,273.042 107.834,273.395 109.342 C 274.264 113.052,274.447 124.768,273.651 125.734 C 272.843 126.715,231.460 126.759,230.378 125.780 C 229.638 125.111,229.688 124.649,230.960 120.354 C 231.460 118.667,231.597 116.874,231.513 113.154 L 231.400 108.200 229.209 108.076 C 226.581 107.927,226.252 107.530,227.189 105.639 C 229.304 101.370,230.001 99.782,230.005 99.221 C 230.008 98.880,230.368 97.459,230.805 96.064 C 231.647 93.379,231.959 84.386,231.249 83.266 C 230.840 82.620,223.533 83.170,216.863 84.350 L 212.726 85.082 212.925 83.841 C 213.034 83.158,213.331 81.340,213.585 79.800 C 214.865 72.032,211.508 63.830,203.665 55.555 L 200.908 52.647 199.354 53.881 C 197.307 55.507,192.929 60.375,191.996 62.063 C 188.020 69.258,186.825 74.230,187.724 79.836 C 188.309 83.484,187.981 85.436,186.858 84.995 C 182.993 83.480,171.317 82.575,170.364 83.717 C 169.041 85.302,169.778 97.601,171.345 100.099 C 171.656 100.595,172.120 101.661,172.376 102.468 C 172.632 103.275,173.090 104.143,173.395 104.396 C 175.114 105.823,174.442 107.982,172.274 107.994 C 169.896 108.007,169.600 108.485,169.601 112.314 C 169.603 116.747,170.307 122.675,171.002 124.099 C 172.126 126.403,172.155 126.400,148.391 126.400 C 132.256 126.400,126.841 126.281,126.480 125.920 C 125.750 125.190,125.857 113.720,126.626 110.200 C 126.962 108.660,127.424 106.320,127.651 105.000 C 128.334 101.039,130.183 95.548,132.635 90.200 C 133.139 89.100,133.744 87.750,133.979 87.200 C 134.415 86.181,135.987 83.472,137.364 81.367 C 137.784 80.725,138.591 79.480,139.157 78.600 C 143.001 72.624,152.452 63.400,159.201 59.037 C 160.191 58.398,161.458 57.565,162.017 57.187 C 162.576 56.809,163.746 56.151,164.617 55.725 C 165.488 55.300,166.560 54.753,167.000 54.511 C 169.852 52.942,176.213 50.407,178.800 49.809 C 180.010 49.529,181.531 49.089,182.179 48.830 C 183.904 48.142,195.840 46.545,199.800 46.472 C 200.900 46.452,203.060 46.591,204.600 46.781 M202.436 65.245 C 207.732 71.932,207.742 81.205,202.460 88.400 C 201.895 89.170,201.386 89.869,201.329 89.954 C 200.456 91.253,197.847 87.828,195.345 82.100 C 192.916 76.538,196.647 64.056,200.866 63.627 C 201.013 63.612,201.719 64.340,202.436 65.245 M182.546 91.395 C 187.655 93.063,189.814 94.504,192.806 98.243 C 194.923 100.889,196.945 108.650,195.770 109.625 C 193.882 111.192,185.010 107.641,181.810 104.037 C 178.358 100.149,175.473 91.206,177.500 90.676 C 178.871 90.317,179.535 90.412,182.546 91.395 M223.918 92.825 C 224.334 100.689,216.201 109.065,207.362 109.876 C 204.203 110.166,204.053 109.789,205.436 105.038 C 207.625 97.511,210.974 93.964,218.200 91.520 C 223.036 89.885,223.771 90.053,223.918 92.825 M181.408 116.035 C 183.731 116.465,188.017 118.360,189.089 119.432 C 189.392 119.735,189.949 120.211,190.327 120.491 C 194.685 123.714,197.990 134.800,194.593 134.800 C 188.615 134.800,181.837 130.496,179.243 125.051 C 176.848 120.027,176.262 116.591,177.700 116.012 C 178.882 115.537,178.708 115.536,181.408 116.035 M223.633 116.240 C 225.342 118.299,221.899 126.869,217.995 130.274 C 213.007 134.624,204.342 135.943,204.919 132.265 C 206.008 125.315,209.554 120.199,215.123 117.541 C 218.849 115.763,222.743 115.167,223.633 116.240 M161.785 135.584 C 162.643 136.531,162.452 137.601,160.821 141.000 C 160.188 142.320,159.179 144.480,158.580 145.800 C 157.980 147.120,156.819 149.640,156.000 151.400 C 155.181 153.160,154.020 155.680,153.420 157.000 C 146.105 173.102,146.824 172.625,141.139 165.146 C 139.451 162.925,139.500 161.385,141.328 159.213 C 141.887 158.548,142.459 157.643,142.599 157.202 C 142.739 156.761,143.010 156.400,143.200 156.400 C 143.390 156.400,143.650 156.072,143.778 155.671 C 143.905 155.269,144.322 154.594,144.705 154.171 C 145.418 153.380,148.784 148.526,150.186 146.267 C 150.618 145.570,151.203 144.762,151.486 144.471 C 151.769 144.181,152.000 143.810,152.000 143.647 C 152.000 143.484,152.315 143.002,152.700 142.575 C 153.085 142.149,154.259 140.506,155.309 138.924 C 156.359 137.342,157.574 135.935,158.009 135.797 C 158.444 135.659,158.800 135.378,158.800 135.173 C 158.800 134.481,161.070 134.793,161.785 135.584 M242.062 135.700 C 242.738 136.195,244.080 137.770,245.044 139.200 C 246.008 140.630,247.791 143.240,249.006 145.000 C 250.222 146.760,252.067 149.439,253.108 150.953 C 254.149 152.467,255.360 154.205,255.800 154.815 C 260.058 160.723,260.747 162.200,259.946 163.708 C 257.643 168.046,252.399 172.055,252.400 169.476 C 252.400 169.214,251.829 167.830,251.132 166.400 C 250.434 164.970,249.415 162.810,248.867 161.600 C 248.319 160.390,247.720 159.130,247.534 158.800 C 247.349 158.470,247.009 157.750,246.777 157.200 C 246.365 156.223,244.703 152.597,243.200 149.400 C 242.786 148.520,241.889 146.540,241.206 145.000 C 240.523 143.460,239.593 141.500,239.138 140.645 C 236.674 136.004,238.427 133.039,242.062 135.700 M271.610 136.025 C 272.037 137.056,272.009 137.611,271.433 139.525 C 271.056 140.776,270.423 142.923,270.026 144.296 C 269.629 145.669,269.119 147.019,268.893 147.296 C 268.667 147.573,268.252 148.577,267.970 149.527 C 267.066 152.571,265.367 153.163,263.940 150.930 C 262.456 148.610,261.138 146.653,259.224 143.928 C 255.815 139.076,254.997 137.915,254.622 137.390 C 254.378 137.050,254.411 136.495,254.713 135.831 L 255.183 134.800 263.143 134.800 L 271.103 134.800 271.610 136.025 M145.575 136.100 C 145.813 136.715,145.746 137.253,145.362 137.800 C 145.052 138.240,143.944 139.839,142.900 141.353 C 141.855 142.867,140.640 144.602,140.200 145.209 C 139.760 145.816,138.508 147.613,137.417 149.201 C 134.078 154.064,132.912 153.190,129.945 143.600 C 128.100 137.636,128.015 137.204,128.482 136.180 L 128.928 135.200 137.077 135.200 C 145.157 135.200,145.229 135.208,145.575 136.100 M183.403 141.531 C 188.796 143.439,192.399 146.441,194.050 150.400 C 194.462 151.390,194.980 152.513,195.201 152.896 C 195.884 154.082,196.419 158.895,195.932 159.481 C 193.917 161.910,180.000 154.845,180.000 151.394 C 180.000 151.212,179.711 150.744,179.358 150.353 C 178.118 148.984,176.326 141.407,177.067 140.667 C 177.648 140.085,180.365 140.456,183.403 141.531 M223.800 143.200 C 223.800 144.885,223.539 146.363,223.060 147.400 C 222.654 148.280,221.961 149.769,221.521 150.708 C 219.818 154.344,216.092 157.159,210.513 159.024 C 204.993 160.870,203.707 159.863,205.375 155.000 C 205.677 154.120,206.033 152.910,206.167 152.310 C 207.025 148.463,212.913 142.734,217.000 141.772 C 217.660 141.617,218.380 141.354,218.600 141.188 C 219.253 140.695,220.497 140.470,222.200 140.537 L 223.800 140.600 223.800 143.200 M170.028 147.317 C 170.585 149.400,171.640 151.914,173.185 154.843 C 174.639 157.599,174.452 159.173,171.147 172.000 C 170.722 173.650,170.212 176.022,170.013 177.271 C 169.814 178.520,169.370 180.371,169.026 181.385 C 168.682 182.399,168.400 183.542,168.400 183.925 C 168.400 186.316,166.507 186.767,163.720 185.041 C 152.666 178.195,153.041 179.048,157.200 170.200 C 157.614 169.320,158.482 167.430,159.129 166.000 C 159.777 164.570,161.146 161.600,162.172 159.400 C 169.408 143.889,169.198 144.211,170.028 147.317 M233.600 149.822 C 233.600 150.078,234.113 151.348,234.741 152.644 C 236.187 155.630,237.995 159.469,239.526 162.800 C 241.986 168.157,243.709 171.877,244.886 174.378 C 246.509 177.825,246.278 178.368,241.909 181.393 C 232.366 188.000,232.269 187.960,229.866 176.400 C 228.228 168.525,227.834 166.804,227.069 164.200 C 225.959 160.420,225.939 157.165,227.017 155.933 C 228.018 154.790,229.824 150.817,230.418 148.450 L 230.858 146.699 232.229 148.028 C 232.983 148.759,233.600 149.566,233.600 149.822 M184.910 165.057 C 185.608 165.418,187.804 166.120,189.790 166.618 C 191.775 167.115,193.898 167.716,194.506 167.953 L 195.611 168.384 195.506 181.092 L 195.400 193.800 192.400 193.930 C 189.438 194.058,182.823 192.821,178.539 191.338 C 176.394 190.596,176.117 189.559,177.127 186.054 C 177.847 183.553,178.406 181.087,179.856 174.000 C 180.193 172.350,180.837 169.740,181.286 168.200 C 181.736 166.660,182.164 165.175,182.239 164.900 C 182.425 164.216,183.394 164.273,184.910 165.057 M218.762 168.032 C 219.234 169.479,219.790 171.729,219.997 173.032 C 220.205 174.334,220.728 176.750,221.159 178.400 C 224.256 190.247,224.212 191.191,220.522 191.811 C 219.685 191.952,217.650 192.433,216.000 192.880 C 212.111 193.934,205.264 194.346,204.764 193.556 C 204.341 192.888,204.286 169.191,204.706 168.555 C 204.868 168.310,207.177 167.566,209.838 166.900 C 212.498 166.235,215.198 165.413,215.838 165.073 C 217.326 164.282,217.646 164.606,218.762 168.032 M126.883 200.877 C 126.166 201.594,126.182 279.412,126.900 279.876 C 128.025 280.604,170.843 280.485,171.654 279.751 C 172.425 279.054,172.796 204.311,172.042 201.600 L 171.764 200.600 149.565 200.497 C 132.632 200.418,127.252 200.508,126.883 200.877 M90.000 206.118 L 89.000 206.624 88.898 243.072 L 88.796 279.520 90.058 279.960 C 91.669 280.522,96.311 280.529,97.908 279.972 L 99.135 279.544 99.268 268.139 C 99.394 257.291,99.439 256.706,100.197 256.152 C 100.937 255.612,101.035 255.665,101.564 256.885 C 101.877 257.608,102.456 258.920,102.851 259.800 C 103.246 260.680,103.841 262.171,104.172 263.114 C 104.503 264.057,105.050 265.222,105.387 265.703 C 105.724 266.184,106.000 266.819,106.000 267.114 C 106.000 267.409,106.430 268.584,106.955 269.725 C 108.534 273.158,110.308 277.343,110.591 278.304 C 111.070 279.934,112.909 280.508,117.065 280.326 C 121.697 280.124,122.029 279.857,120.806 277.316 C 119.875 275.383,119.469 274.492,117.200 269.400 C 116.514 267.860,115.613 265.880,115.198 265.000 C 114.784 264.120,113.865 262.050,113.157 260.400 C 112.449 258.750,111.338 256.230,110.689 254.800 C 108.996 251.074,108.846 250.690,108.729 249.800 C 108.636 249.089,111.307 243.351,118.211 229.429 C 120.923 223.960,120.946 224.000,115.197 224.000 L 110.891 224.000 110.203 225.500 C 108.146 229.981,107.473 231.451,104.627 237.697 C 100.899 245.877,101.032 245.658,100.185 245.039 C 99.429 244.486,99.393 243.765,99.200 225.544 L 99.000 206.623 98.000 206.117 C 96.706 205.463,91.293 205.463,90.000 206.118 M224.408 210.100 C 224.202 210.595,223.855 212.170,223.637 213.600 C 222.173 223.207,221.875 224.000,219.725 224.000 C 217.233 224.000,216.800 224.505,216.800 227.407 L 216.800 229.987 218.750 230.975 C 221.355 232.295,221.200 231.066,221.203 250.333 C 221.206 269.606,221.549 273.729,223.370 276.356 C 228.144 283.245,240.800 282.272,240.800 275.016 C 240.800 272.559,240.540 272.389,237.264 272.703 C 231.722 273.236,231.824 273.619,231.672 251.673 C 231.519 229.622,231.189 231.200,235.947 231.200 C 239.895 231.200,240.400 230.763,240.400 227.349 C 240.400 224.223,240.119 224.000,236.169 224.000 C 231.753 224.000,231.847 224.158,231.600 216.323 C 231.369 208.972,231.509 209.215,227.491 209.206 C 225.057 209.201,224.745 209.291,224.408 210.100 M143.920 220.407 C 144.983 221.548,147.180 226.409,147.985 229.400 C 148.509 231.348,148.861 232.010,149.246 231.771 C 149.607 231.549,152.000 226.677,152.000 226.167 C 152.000 225.620,154.165 220.974,154.733 220.300 C 155.623 219.245,162.382 219.275,163.344 220.338 C 163.970 221.030,163.962 221.141,163.206 222.101 C 162.763 222.665,162.398 223.278,162.396 223.463 C 162.394 223.648,160.504 227.575,158.196 232.188 C 155.888 236.802,154.000 241.031,154.000 241.586 C 154.000 242.477,156.339 247.500,162.266 259.337 C 164.507 263.811,164.400 264.000,159.627 264.000 C 154.943 264.000,154.984 264.041,152.018 256.348 C 149.836 250.688,148.948 249.887,148.119 252.830 C 147.845 253.804,147.369 255.050,147.062 255.600 C 146.755 256.150,146.295 257.248,146.041 258.039 C 145.786 258.830,145.086 260.450,144.484 261.639 L 143.390 263.800 139.327 263.800 C 133.785 263.800,133.775 265.049,139.406 253.400 C 145.833 240.104,145.781 242.629,139.877 230.780 C 137.305 225.617,135.200 221.179,135.200 220.916 C 135.200 219.396,142.577 218.965,143.920 220.407 M191.947 223.813 C 183.308 225.910,180.137 234.281,180.513 254.000 C 180.897 274.135,184.721 280.800,195.887 280.800 C 204.943 280.800,209.809 276.673,210.292 268.584 C 210.583 263.696,210.504 263.600,206.165 263.600 C 202.396 263.600,202.000 263.890,202.000 266.647 C 202.000 271.407,197.560 274.311,193.975 271.895 C 192.032 270.585,190.804 265.119,190.801 257.764 C 190.800 253.961,190.695 254.000,200.970 254.000 C 210.257 254.000,209.757 254.192,210.374 250.386 C 212.475 237.419,210.263 228.424,204.037 224.619 C 201.938 223.336,195.642 222.917,191.947 223.813 M262.129 223.855 C 261.160 224.199,259.761 225.203,258.799 226.247 C 257.032 228.164,256.000 228.151,256.000 226.213 C 256.000 224.254,250.072 222.888,248.480 224.480 C 247.786 225.174,247.786 279.226,248.480 279.920 C 249.172 280.612,256.956 280.576,257.535 279.878 C 257.832 279.520,258.005 272.102,258.084 256.290 L 258.200 233.225 259.600 232.017 C 262.738 229.311,264.611 231.210,265.061 237.556 C 265.362 241.791,265.556 242.000,269.197 242.000 C 272.521 242.000,273.827 239.284,273.499 233.059 C 273.085 225.225,268.572 221.572,262.129 223.855 M288.039 223.794 C 281.422 225.294,277.396 231.094,278.235 237.915 C 278.614 240.990,279.299 241.638,282.415 241.874 C 285.540 242.111,286.331 241.647,286.634 239.399 C 287.477 233.157,289.176 230.800,292.832 230.800 C 296.203 230.800,297.600 233.851,297.600 241.215 L 297.600 245.190 295.900 246.268 C 294.965 246.860,293.300 247.688,292.200 248.106 C 291.100 248.524,289.930 249.100,289.600 249.386 C 289.270 249.672,288.582 250.033,288.071 250.189 C 283.720 251.517,278.578 258.087,277.653 263.500 C 275.783 274.447,280.699 281.431,289.761 280.704 C 292.279 280.502,293.099 280.194,297.311 277.867 L 299.222 276.811 299.457 277.985 C 299.932 280.362,304.794 281.431,306.958 279.635 C 308.098 278.689,307.909 236.221,306.745 231.827 C 304.876 224.766,297.577 221.632,288.039 223.794 M198.625 231.550 C 200.652 232.786,201.600 235.921,201.600 241.387 C 201.600 246.940,201.626 246.909,196.657 247.127 C 190.563 247.393,189.818 245.647,191.822 235.800 C 192.715 231.410,195.521 229.657,198.625 231.550 M297.357 254.633 C 297.684 255.483,297.591 268.746,297.251 269.964 C 296.587 272.336,292.175 273.584,289.780 272.077 C 286.943 270.291,286.760 262.824,289.452 258.686 C 291.711 255.214,296.615 252.699,297.357 254.633 " stroke="none" fill="#363620" fill-rule="evenodd"></path><path id="path3" d="M199.700 64.088 C 195.992 65.876,193.237 77.273,195.345 82.100 C 197.847 87.828,200.456 91.253,201.329 89.954 C 201.386 89.869,201.895 89.170,202.460 88.400 C 207.742 81.205,207.732 71.932,202.436 65.245 C 201.018 63.455,201.015 63.454,199.700 64.088 M177.500 90.676 C 175.473 91.206,178.358 100.149,181.810 104.037 C 185.010 107.641,193.882 111.192,195.770 109.625 C 196.945 108.650,194.923 100.889,192.806 98.243 C 189.814 94.504,187.655 93.063,182.546 91.395 C 179.535 90.412,178.871 90.317,177.500 90.676 M218.200 91.520 C 210.974 93.964,207.625 97.511,205.436 105.038 C 204.053 109.789,204.203 110.166,207.362 109.876 C 216.201 109.065,224.334 100.689,223.918 92.825 C 223.771 90.053,223.036 89.885,218.200 91.520 M177.700 116.012 C 176.262 116.591,176.848 120.027,179.243 125.051 C 181.837 130.496,188.615 134.800,194.593 134.800 C 197.990 134.800,194.685 123.714,190.327 120.491 C 189.949 120.211,189.392 119.735,189.089 119.432 C 188.017 118.360,183.731 116.465,181.408 116.035 C 178.708 115.536,178.882 115.537,177.700 116.012 M219.538 116.008 C 212.040 117.274,206.261 123.700,204.919 132.265 C 204.342 135.943,213.007 134.624,217.995 130.274 C 221.899 126.869,225.342 118.299,223.633 116.240 C 223.063 115.553,222.443 115.518,219.538 116.008 M177.067 140.667 C 176.326 141.407,178.118 148.984,179.358 150.353 C 179.711 150.744,180.000 151.212,180.000 151.394 C 180.000 154.107,189.894 160.000,194.448 160.000 C 196.336 160.000,196.796 155.665,195.201 152.896 C 194.980 152.513,194.462 151.390,194.050 150.400 C 191.764 144.917,179.719 138.014,177.067 140.667 M219.800 140.680 C 219.360 140.793,218.820 141.022,218.600 141.188 C 218.380 141.354,217.660 141.617,217.000 141.772 C 212.913 142.734,207.025 148.463,206.167 152.310 C 206.033 152.910,205.677 154.120,205.375 155.000 C 203.707 159.863,204.993 160.870,210.513 159.024 C 216.092 157.159,219.818 154.344,221.521 150.708 C 221.961 149.769,222.654 148.280,223.060 147.400 C 223.539 146.363,223.800 144.885,223.800 143.200 L 223.800 140.600 222.200 140.537 C 221.320 140.503,220.240 140.567,219.800 140.680 " stroke="none" fill="#ecc532" fill-rule="evenodd"></path><path id="path4" d="M193.760 37.981 C 192.198 38.161,190.576 38.492,190.156 38.716 C 189.737 38.941,187.685 39.249,185.597 39.401 C 183.298 39.568,181.169 39.967,180.200 40.412 C 179.320 40.816,177.535 41.338,176.233 41.572 C 174.931 41.806,173.581 42.253,173.233 42.565 C 172.885 42.877,171.880 43.254,171.000 43.404 C 170.120 43.553,168.943 43.995,168.384 44.387 C 167.826 44.779,166.799 45.225,166.103 45.377 C 165.407 45.530,164.424 45.977,163.919 46.369 C 163.413 46.762,162.312 47.308,161.472 47.582 C 160.632 47.856,159.852 48.321,159.739 48.616 C 159.626 48.910,159.021 49.264,158.394 49.401 C 157.768 49.539,157.031 49.922,156.757 50.252 C 156.483 50.582,155.705 51.135,155.029 51.481 C 154.353 51.826,153.656 52.354,153.480 52.654 C 153.304 52.954,152.916 53.200,152.616 53.200 C 152.317 53.200,150.751 54.300,149.136 55.645 C 145.319 58.825,145.585 58.578,141.325 62.885 C 136.619 67.642,136.449 67.831,134.791 70.125 C 134.026 71.184,132.995 72.560,132.500 73.183 C 132.005 73.806,131.600 74.483,131.600 74.688 C 131.600 74.893,131.159 75.475,130.621 75.981 C 130.082 76.486,129.528 77.418,129.389 78.050 C 129.250 78.683,128.961 79.200,128.746 79.200 C 128.531 79.200,128.000 80.003,127.566 80.983 C 127.132 81.964,126.607 82.872,126.400 83.000 C 126.192 83.129,125.804 83.991,125.538 84.917 C 125.272 85.843,124.753 86.898,124.384 87.262 C 124.016 87.627,123.590 88.702,123.438 89.652 C 123.286 90.602,122.878 91.692,122.532 92.075 C 122.186 92.458,121.743 93.623,121.548 94.665 C 121.354 95.707,120.852 97.288,120.434 98.179 C 120.016 99.071,119.549 101.060,119.395 102.600 C 119.242 104.140,118.820 105.940,118.458 106.600 C 117.456 108.427,117.467 133.727,118.470 135.258 C 118.844 135.829,119.262 137.585,119.418 139.240 C 119.571 140.868,120.026 142.830,120.428 143.600 C 120.831 144.370,121.359 146.021,121.602 147.269 C 121.845 148.517,122.306 149.756,122.626 150.021 C 122.945 150.287,123.323 151.228,123.464 152.113 C 123.606 152.998,124.036 154.036,124.420 154.420 C 124.804 154.804,125.245 155.695,125.400 156.400 C 125.555 157.105,125.997 157.997,126.383 158.383 C 126.769 158.769,127.212 159.593,127.368 160.215 C 127.524 160.837,128.090 161.867,128.626 162.504 C 129.162 163.140,129.600 163.847,129.600 164.073 C 129.600 164.299,130.050 165.019,130.600 165.673 C 131.150 166.327,131.600 167.085,131.600 167.359 C 131.600 167.632,132.005 168.226,132.500 168.678 C 132.995 169.131,134.187 170.606,135.150 171.956 C 138.018 175.981,149.079 186.800,150.326 186.800 C 150.567 186.800,151.211 187.205,151.757 187.700 C 154.075 189.799,155.053 190.471,156.095 190.679 C 156.703 190.801,157.200 191.128,157.200 191.407 C 157.200 191.685,157.885 192.187,158.723 192.522 C 159.560 192.857,160.473 193.405,160.750 193.740 C 161.028 194.075,161.828 194.470,162.528 194.617 C 163.227 194.765,164.160 195.208,164.600 195.600 C 165.040 195.992,166.030 196.447,166.800 196.609 C 167.570 196.771,168.618 197.232,169.128 197.632 C 169.639 198.032,170.897 198.486,171.926 198.640 C 172.954 198.794,174.246 199.252,174.797 199.658 C 175.395 200.098,176.850 200.499,178.400 200.651 C 179.830 200.792,181.270 201.132,181.600 201.406 C 184.654 203.947,218.800 203.782,218.800 201.227 C 218.800 201.056,220.012 200.803,221.493 200.664 C 223.152 200.509,224.573 200.128,225.193 199.671 C 225.747 199.263,226.993 198.823,227.961 198.694 C 228.930 198.565,230.197 198.109,230.777 197.680 C 231.357 197.251,232.454 196.768,233.216 196.607 C 233.977 196.446,234.960 195.992,235.400 195.600 C 235.840 195.208,236.766 194.767,237.459 194.621 C 238.151 194.474,239.024 194.015,239.400 193.600 C 239.776 193.185,240.626 192.726,241.290 192.580 C 241.993 192.426,242.580 191.999,242.695 191.558 C 242.821 191.076,243.248 190.800,243.865 190.800 C 244.399 190.800,245.242 190.395,245.737 189.900 C 246.233 189.405,247.124 188.779,247.719 188.509 C 248.314 188.238,248.800 187.743,248.800 187.409 C 248.800 187.074,249.091 186.800,249.447 186.800 C 249.803 186.800,250.748 186.257,251.547 185.593 C 254.899 182.809,260.400 177.780,260.400 177.499 C 260.400 177.409,261.310 176.360,262.422 175.168 C 263.534 173.976,264.708 172.505,265.032 171.900 C 265.356 171.295,265.792 170.800,266.003 170.800 C 266.213 170.800,266.498 170.350,266.636 169.800 C 266.774 169.250,267.031 168.800,267.208 168.800 C 267.685 168.800,270.800 164.110,270.800 163.392 C 270.800 163.053,271.061 162.675,271.380 162.552 C 271.700 162.430,272.264 161.535,272.635 160.565 C 273.005 159.594,273.457 158.800,273.638 158.800 C 273.820 158.800,274.186 158.035,274.452 157.100 C 274.718 156.165,275.246 155.040,275.625 154.600 C 276.004 154.160,276.442 153.170,276.600 152.400 C 276.757 151.630,277.219 150.452,277.625 149.782 C 278.032 149.111,278.485 147.761,278.633 146.782 C 278.781 145.802,279.230 144.453,279.631 143.785 C 280.032 143.117,280.484 141.317,280.636 139.785 C 280.788 138.253,281.283 136.100,281.736 135.000 C 282.506 133.131,282.560 132.204,282.560 120.800 C 282.560 109.396,282.506 108.469,281.736 106.600 C 281.283 105.500,280.788 103.347,280.636 101.815 C 280.484 100.282,280.031 98.484,279.627 97.815 C 279.224 97.147,278.774 95.758,278.627 94.728 C 278.480 93.699,278.009 92.410,277.580 91.865 C 277.151 91.320,276.800 90.556,276.800 90.169 C 276.800 89.515,274.837 84.970,273.963 83.600 C 273.752 83.270,273.219 82.242,272.779 81.317 C 272.338 80.391,271.795 79.520,271.572 79.383 C 271.349 79.245,270.884 78.427,270.540 77.566 C 270.195 76.705,269.755 76.000,269.562 76.000 C 269.369 76.000,268.948 75.370,268.626 74.600 C 268.304 73.830,267.864 73.200,267.647 73.200 C 267.431 73.200,267.141 72.843,267.002 72.406 C 266.437 70.627,254.333 57.600,253.245 57.600 C 253.022 57.600,252.696 57.348,252.520 57.040 C 252.109 56.322,247.953 53.200,247.407 53.200 C 247.179 53.200,246.768 52.840,246.493 52.400 C 246.218 51.960,245.753 51.600,245.459 51.600 C 245.165 51.600,244.401 51.150,243.762 50.600 C 243.123 50.051,242.410 49.601,242.178 49.600 C 241.945 49.600,241.158 49.159,240.428 48.621 C 239.699 48.082,238.602 47.532,237.992 47.398 C 237.382 47.264,236.578 46.818,236.206 46.406 C 235.833 45.995,234.825 45.539,233.964 45.394 C 233.104 45.249,232.400 44.987,232.400 44.813 C 232.400 44.431,230.705 43.750,228.816 43.375 C 228.054 43.223,226.974 42.780,226.416 42.390 C 225.857 42.000,224.509 41.571,223.419 41.437 C 222.330 41.303,220.710 40.853,219.819 40.437 C 218.835 39.977,216.789 39.577,214.600 39.417 C 212.620 39.271,210.255 38.902,209.344 38.596 C 207.311 37.913,197.662 37.532,193.760 37.981 M209.185 39.635 C 220.808 40.914,232.108 44.647,241.200 50.212 C 242.410 50.952,243.931 51.861,244.579 52.230 C 250.754 55.750,261.581 66.082,266.400 73.052 C 269.843 78.032,271.498 80.768,273.145 84.200 C 273.884 85.740,274.828 87.655,275.244 88.454 C 275.660 89.254,276.000 90.119,276.000 90.376 C 276.000 90.634,276.386 91.689,276.858 92.722 C 277.329 93.755,277.948 95.500,278.232 96.600 C 278.516 97.700,279.019 99.590,279.350 100.800 C 281.204 107.584,281.800 112.452,281.800 120.800 C 281.800 129.148,281.204 134.016,279.350 140.800 C 279.019 142.010,278.514 143.913,278.227 145.028 C 277.940 146.144,277.426 147.674,277.085 148.428 C 276.743 149.183,276.335 150.250,276.179 150.800 C 275.788 152.173,272.075 159.838,270.851 161.800 C 267.738 166.790,266.798 168.145,264.053 171.600 C 259.433 177.415,255.073 181.761,250.413 185.200 C 249.667 185.750,248.594 186.565,248.029 187.011 C 246.545 188.181,241.173 191.620,239.524 192.455 C 235.211 194.641,232.400 195.979,231.200 196.420 C 230.430 196.703,229.620 197.067,229.400 197.230 C 229.180 197.393,228.010 197.801,226.800 198.137 C 225.590 198.473,223.790 199.024,222.800 199.362 C 210.776 203.465,189.793 203.457,177.200 199.344 C 176.210 199.021,174.430 198.484,173.245 198.151 C 172.060 197.819,170.710 197.307,170.245 197.015 C 169.780 196.722,168.950 196.354,168.400 196.195 C 167.318 195.883,162.956 193.762,159.897 192.059 C 148.624 185.787,138.309 175.990,131.196 164.800 C 130.986 164.470,130.398 163.570,129.888 162.800 C 128.692 160.994,124.620 152.733,123.776 150.400 C 121.663 144.563,120.502 140.497,119.778 136.400 C 119.409 134.310,118.934 131.700,118.723 130.600 C 118.225 128.011,118.240 113.598,118.742 111.000 C 118.955 109.900,119.482 107.005,119.914 104.567 C 120.346 102.129,120.896 99.767,121.137 99.318 C 121.377 98.869,121.766 97.646,122.000 96.600 C 122.234 95.555,122.780 93.922,123.213 92.971 C 123.646 92.021,124.000 91.036,124.000 90.783 C 124.000 90.285,128.310 81.495,129.679 79.200 C 137.910 65.404,150.523 53.857,164.600 47.230 C 166.580 46.298,168.536 45.356,168.946 45.136 C 170.169 44.480,175.235 42.784,177.656 42.219 C 178.898 41.930,180.791 41.402,181.864 41.045 C 187.245 39.258,199.846 38.607,209.185 39.635 M195.000 46.828 C 188.629 47.554,183.287 48.388,182.179 48.830 C 181.531 49.089,180.010 49.529,178.800 49.809 C 176.213 50.407,169.852 52.942,167.000 54.511 C 166.560 54.753,165.488 55.300,164.617 55.725 C 163.746 56.151,162.576 56.809,162.017 57.187 C 161.458 57.565,160.191 58.398,159.201 59.037 C 152.452 63.400,143.001 72.624,139.157 78.600 C 138.591 79.480,137.784 80.725,137.364 81.367 C 135.987 83.472,134.415 86.181,133.979 87.200 C 133.744 87.750,133.139 89.100,132.635 90.200 C 130.183 95.548,128.334 101.039,127.651 105.000 C 127.424 106.320,126.962 108.660,126.626 110.200 C 125.857 113.720,125.750 125.190,126.480 125.920 C 126.841 126.281,132.256 126.400,148.391 126.400 C 172.155 126.400,172.126 126.403,171.002 124.099 C 170.307 122.675,169.603 116.747,169.601 112.314 C 169.600 108.485,169.896 108.007,172.274 107.994 C 174.442 107.982,175.114 105.823,173.395 104.396 C 173.090 104.143,172.632 103.275,172.376 102.468 C 172.120 101.661,171.656 100.595,171.345 100.099 C 169.778 97.601,169.041 85.302,170.364 83.717 C 171.317 82.575,182.993 83.480,186.858 84.995 C 187.981 85.436,188.309 83.484,187.724 79.836 C 186.825 74.230,188.020 69.258,191.996 62.063 C 192.929 60.375,197.307 55.507,199.354 53.881 L 200.908 52.647 203.665 55.555 C 211.508 63.830,214.865 72.032,213.585 79.800 C 213.331 81.340,213.034 83.158,212.925 83.841 L 212.726 85.082 216.863 84.350 C 223.533 83.170,230.840 82.620,231.249 83.266 C 231.959 84.386,231.647 93.379,230.805 96.064 C 230.368 97.459,230.008 98.880,230.005 99.221 C 230.001 99.782,229.304 101.370,227.189 105.639 C 226.252 107.530,226.581 107.927,229.209 108.076 L 231.400 108.200 231.513 113.154 C 231.597 116.874,231.460 118.667,230.960 120.354 C 229.688 124.649,229.638 125.111,230.378 125.780 C 231.460 126.759,272.843 126.715,273.651 125.734 C 274.447 124.768,274.264 113.052,273.395 109.342 C 273.042 107.834,272.507 105.340,272.206 103.800 C 268.869 86.709,255.266 67.780,239.258 57.950 C 236.704 56.382,232.398 54.000,232.112 53.998 C 231.941 53.996,231.260 53.703,230.600 53.345 C 229.532 52.767,226.985 51.747,223.400 50.461 C 219.871 49.196,214.946 48.022,211.400 47.602 C 209.200 47.341,206.140 46.971,204.600 46.781 C 201.321 46.376,198.860 46.388,195.000 46.828 M208.609 48.190 C 212.643 48.534,215.903 49.009,216.609 49.356 C 217.264 49.679,218.950 50.148,220.357 50.399 C 221.763 50.650,223.293 51.099,223.757 51.395 C 224.220 51.692,225.410 52.146,226.400 52.405 C 227.390 52.663,228.470 53.105,228.800 53.387 C 229.130 53.668,230.120 54.124,231.000 54.400 C 231.880 54.676,232.870 55.130,233.200 55.411 C 233.530 55.691,234.430 56.215,235.200 56.574 C 235.970 56.934,237.235 57.627,238.011 58.114 C 238.787 58.601,240.030 59.360,240.774 59.800 C 241.517 60.240,242.443 60.901,242.832 61.270 C 243.221 61.638,243.870 62.116,244.273 62.332 C 245.176 62.815,248.513 65.795,251.762 69.019 C 256.171 73.393,259.907 77.978,261.835 81.380 C 262.203 82.030,262.750 82.808,263.052 83.109 C 263.353 83.410,263.600 83.879,263.600 84.151 C 263.600 84.422,264.041 85.242,264.579 85.972 C 265.118 86.701,265.669 87.804,265.805 88.422 C 265.940 89.039,266.287 89.741,266.576 89.980 C 266.864 90.219,267.330 91.267,267.611 92.308 C 267.892 93.348,268.354 94.473,268.638 94.806 C 268.922 95.140,269.349 96.310,269.587 97.406 C 269.825 98.503,270.356 100.210,270.768 101.200 C 271.179 102.190,271.638 104.170,271.787 105.600 C 271.936 107.030,272.346 109.370,272.697 110.800 C 273.128 112.553,273.347 115.355,273.368 119.400 L 273.400 125.400 252.000 125.400 L 230.600 125.400 230.738 124.228 C 230.814 123.583,231.167 122.612,231.522 122.070 C 232.023 121.305,232.204 119.712,232.333 114.928 C 232.526 107.731,232.323 107.200,229.385 107.200 L 227.694 107.200 228.223 105.663 C 228.514 104.818,229.110 103.513,229.547 102.763 C 229.984 102.013,230.472 100.680,230.631 99.800 C 230.790 98.920,231.201 97.769,231.544 97.243 C 232.512 95.755,232.748 84.391,231.839 83.004 C 230.819 81.446,225.753 81.569,217.805 83.345 C 214.209 84.149,214.327 84.364,214.259 76.921 C 214.211 71.808,214.073 70.371,213.552 69.576 C 213.196 69.033,212.774 67.961,212.615 67.194 C 212.455 66.427,211.932 65.170,211.452 64.400 C 210.973 63.630,210.405 62.712,210.190 62.360 C 207.352 57.701,201.638 51.807,200.355 52.214 C 199.475 52.493,194.812 57.008,192.888 59.445 C 187.828 65.849,185.215 75.467,186.966 81.238 C 187.906 84.334,187.595 84.392,179.600 82.606 C 175.676 81.730,170.339 81.890,169.314 82.914 C 167.162 85.064,169.152 98.367,172.588 104.800 C 173.706 106.891,173.556 107.338,171.718 107.392 C 168.099 107.500,167.532 110.582,169.346 120.284 C 170.113 124.385,170.169 125.203,169.697 125.384 C 169.388 125.503,159.634 125.600,148.023 125.600 L 126.911 125.600 126.665 123.516 C 126.332 120.706,126.764 113.468,127.412 111.000 C 127.701 109.900,128.147 107.476,128.403 105.613 C 128.659 103.751,129.103 101.771,129.389 101.213 C 129.675 100.656,130.121 99.168,130.381 97.907 C 130.641 96.646,131.008 95.519,131.196 95.402 C 131.385 95.286,131.823 94.338,132.171 93.295 C 132.518 92.253,133.252 90.514,133.801 89.432 C 134.351 88.350,134.800 87.244,134.800 86.975 C 134.800 86.706,135.026 86.399,135.301 86.293 C 135.577 86.187,136.045 85.430,136.342 84.610 C 136.639 83.790,137.145 82.822,137.467 82.459 C 138.284 81.539,139.885 79.189,140.491 78.019 C 140.771 77.479,141.360 76.651,141.800 76.178 C 142.240 75.705,143.500 74.274,144.600 72.997 C 147.812 69.271,153.140 64.173,155.200 62.856 C 155.750 62.505,157.320 61.358,158.689 60.309 C 160.057 59.259,161.424 58.400,161.727 58.400 C 162.029 58.400,162.602 58.040,163.000 57.600 C 163.398 57.160,163.941 56.800,164.206 56.800 C 164.471 56.800,165.319 56.372,166.090 55.849 C 166.861 55.326,168.191 54.673,169.046 54.398 C 169.901 54.124,170.873 53.662,171.206 53.372 C 171.540 53.082,172.707 52.645,173.800 52.400 C 174.893 52.155,176.060 51.708,176.394 51.406 C 176.727 51.105,178.260 50.642,179.800 50.378 C 181.340 50.114,183.122 49.633,183.759 49.308 C 186.442 47.943,199.047 47.376,208.609 48.190 M158.800 135.173 C 158.800 135.378,158.444 135.659,158.009 135.797 C 157.574 135.935,156.359 137.342,155.309 138.924 C 154.259 140.506,153.085 142.149,152.700 142.575 C 152.315 143.002,152.000 143.484,152.000 143.647 C 152.000 143.810,151.769 144.181,151.486 144.471 C 151.203 144.762,150.618 145.570,150.186 146.267 C 148.784 148.526,145.418 153.380,144.705 154.171 C 144.322 154.594,143.905 155.269,143.778 155.671 C 143.650 156.072,143.390 156.400,143.200 156.400 C 143.010 156.400,142.739 156.761,142.599 157.202 C 142.459 157.643,141.887 158.548,141.328 159.213 C 139.500 161.385,139.451 162.925,141.139 165.146 C 146.824 172.625,146.105 173.102,153.420 157.000 C 154.020 155.680,155.181 153.160,156.000 151.400 C 156.819 149.640,157.980 147.120,158.580 145.800 C 159.179 144.480,160.188 142.320,160.821 141.000 C 162.452 137.601,162.643 136.531,161.785 135.584 C 161.070 134.793,158.800 134.481,158.800 135.173 M238.215 135.722 C 237.529 136.767,237.775 138.078,239.138 140.645 C 239.593 141.500,240.523 143.460,241.206 145.000 C 241.889 146.540,242.786 148.520,243.200 149.400 C 244.703 152.597,246.365 156.223,246.777 157.200 C 247.009 157.750,247.349 158.470,247.534 158.800 C 247.720 159.130,248.319 160.390,248.867 161.600 C 249.415 162.810,250.434 164.970,251.132 166.400 C 251.829 167.830,252.400 169.214,252.400 169.476 C 252.399 172.055,257.643 168.046,259.946 163.708 C 260.747 162.200,260.058 160.723,255.800 154.815 C 255.360 154.205,254.149 152.467,253.108 150.953 C 252.067 149.439,250.222 146.760,249.006 145.000 C 247.791 143.240,246.008 140.630,245.044 139.200 C 242.228 135.023,239.562 133.665,238.215 135.722 M254.713 135.831 C 254.411 136.495,254.378 137.050,254.622 137.390 C 254.997 137.915,255.815 139.076,259.224 143.928 C 261.138 146.653,262.456 148.610,263.940 150.930 C 265.367 153.163,267.066 152.571,267.970 149.527 C 268.252 148.577,268.667 147.573,268.893 147.296 C 269.119 147.019,269.629 145.669,270.026 144.296 C 270.423 142.923,271.056 140.776,271.433 139.525 C 272.009 137.611,272.037 137.056,271.610 136.025 L 271.103 134.800 263.143 134.800 L 255.183 134.800 254.713 135.831 M128.482 136.180 C 128.015 137.204,128.100 137.636,129.945 143.600 C 132.912 153.190,134.078 154.064,137.417 149.201 C 138.508 147.613,139.760 145.816,140.200 145.209 C 140.640 144.602,141.855 142.867,142.900 141.353 C 143.944 139.839,145.052 138.240,145.362 137.800 C 146.978 135.500,146.022 135.200,137.077 135.200 L 128.928 135.200 128.482 136.180 M167.731 147.733 C 167.042 149.090,165.929 151.370,165.258 152.800 C 162.562 158.547,160.246 163.534,159.129 166.000 C 158.482 167.430,157.614 169.320,157.200 170.200 C 153.041 179.048,152.666 178.195,163.720 185.041 C 166.507 186.767,168.400 186.316,168.400 183.925 C 168.400 183.542,168.682 182.399,169.026 181.385 C 169.370 180.371,169.814 178.520,170.013 177.271 C 170.212 176.022,170.722 173.650,171.147 172.000 C 174.452 159.173,174.639 157.599,173.185 154.843 C 171.640 151.914,170.585 149.400,170.028 147.317 C 169.387 144.920,169.137 144.965,167.731 147.733 M230.418 148.450 C 229.824 150.817,228.018 154.790,227.017 155.933 C 225.939 157.165,225.959 160.420,227.069 164.200 C 227.834 166.804,228.228 168.525,229.866 176.400 C 232.269 187.960,232.366 188.000,241.909 181.393 C 246.278 178.368,246.509 177.825,244.886 174.378 C 243.709 171.877,241.986 168.157,239.526 162.800 C 237.995 159.469,236.187 155.630,234.741 152.644 C 234.113 151.348,233.600 150.078,233.600 149.822 C 233.600 149.566,232.983 148.759,232.229 148.028 L 230.858 146.699 230.418 148.450 M182.239 164.900 C 182.164 165.175,181.736 166.660,181.286 168.200 C 180.837 169.740,180.193 172.350,179.856 174.000 C 178.406 181.087,177.847 183.553,177.127 186.054 C 176.117 189.559,176.394 190.596,178.539 191.338 C 182.823 192.821,189.438 194.058,192.400 193.930 L 195.400 193.800 195.506 181.092 L 195.611 168.384 194.506 167.953 C 193.898 167.716,191.775 167.115,189.790 166.618 C 187.804 166.120,185.608 165.418,184.910 165.057 C 183.394 164.273,182.425 164.216,182.239 164.900 M215.838 165.073 C 215.198 165.413,212.498 166.235,209.838 166.900 C 207.177 167.566,204.868 168.310,204.706 168.555 C 204.286 169.191,204.341 192.888,204.764 193.556 C 205.264 194.346,212.111 193.934,216.000 192.880 C 217.650 192.433,219.685 191.952,220.522 191.811 C 224.212 191.191,224.256 190.247,221.159 178.400 C 220.728 176.750,220.205 174.334,219.997 173.032 C 219.018 166.886,217.585 164.145,215.838 165.073 M126.229 200.229 C 125.342 201.115,125.260 279.620,126.145 280.354 C 126.540 280.682,133.024 280.778,149.645 280.703 L 172.600 280.600 172.702 240.425 C 172.783 208.549,172.700 200.184,172.302 199.931 C 171.232 199.252,126.919 199.538,126.229 200.229 M172.042 201.600 C 172.796 204.311,172.425 279.054,171.654 279.751 C 170.843 280.485,128.025 280.604,126.900 279.876 C 126.182 279.412,126.166 201.594,126.883 200.877 C 127.252 200.508,132.632 200.418,149.565 200.497 L 171.764 200.600 172.042 201.600 M90.008 204.846 C 87.399 205.887,87.600 202.706,87.600 243.000 C 87.600 285.922,86.699 280.800,94.251 280.800 C 100.983 280.800,100.392 281.887,100.440 269.420 C 100.481 258.765,100.775 255.359,101.366 258.688 C 101.531 259.617,102.005 260.807,102.419 261.333 C 102.833 261.859,103.341 263.047,103.549 263.973 C 103.758 264.900,104.199 265.959,104.530 266.329 C 104.861 266.698,105.257 267.669,105.408 268.487 C 105.560 269.305,106.022 270.364,106.434 270.839 C 106.846 271.314,107.302 272.355,107.447 273.151 C 107.592 273.948,108.027 275.052,108.414 275.604 C 108.801 276.156,109.322 277.368,109.572 278.297 C 110.193 280.601,110.767 280.800,116.787 280.800 C 123.002 280.800,124.113 279.921,121.590 277.000 C 121.210 276.560,120.777 275.515,120.627 274.678 C 120.478 273.840,120.030 272.830,119.632 272.432 C 119.235 272.035,118.785 271.045,118.632 270.232 C 118.480 269.420,118.030 268.430,117.632 268.032 C 117.235 267.635,116.785 266.645,116.632 265.832 C 116.480 265.020,116.024 264.024,115.620 263.620 C 115.216 263.216,114.762 262.162,114.613 261.278 C 114.464 260.394,114.013 259.373,113.610 259.009 C 113.208 258.646,112.757 257.684,112.607 256.874 C 112.458 256.063,112.020 255.040,111.635 254.600 C 109.834 252.542,109.842 246.985,111.649 244.981 C 112.055 244.530,112.501 243.594,112.640 242.901 C 112.778 242.208,113.234 241.331,113.652 240.953 C 114.070 240.575,114.523 239.569,114.660 238.718 C 114.798 237.851,115.214 237.006,115.607 236.796 C 115.992 236.590,116.434 235.742,116.589 234.911 C 116.744 234.080,117.206 233.086,117.617 232.702 C 118.027 232.317,118.489 231.334,118.642 230.517 C 118.795 229.699,119.290 228.732,119.741 228.367 C 120.377 227.851,120.565 227.222,120.580 225.551 L 120.600 223.400 115.897 223.287 C 110.767 223.164,109.832 223.420,109.421 225.058 C 109.272 225.651,108.814 226.565,108.403 227.087 C 107.992 227.610,107.529 228.614,107.376 229.319 C 107.222 230.023,106.772 231.013,106.376 231.519 C 105.979 232.024,105.529 233.014,105.376 233.719 C 105.222 234.423,104.772 235.413,104.376 235.919 C 103.979 236.424,103.533 237.414,103.384 238.119 C 103.236 238.823,102.795 239.760,102.406 240.200 C 102.017 240.640,101.572 241.708,101.418 242.572 C 100.689 246.649,100.412 241.775,100.406 224.776 C 100.399 204.919,100.488 205.663,98.040 204.851 C 96.390 204.303,91.377 204.300,90.008 204.846 M98.000 206.117 L 99.000 206.623 99.200 225.544 C 99.457 249.895,99.265 249.463,104.627 237.697 C 107.473 231.451,108.146 229.981,110.203 225.500 L 110.891 224.000 115.197 224.000 C 120.946 224.000,120.923 223.960,118.211 229.429 C 111.307 243.351,108.636 249.089,108.729 249.800 C 108.846 250.690,108.996 251.074,110.689 254.800 C 111.338 256.230,112.449 258.750,113.157 260.400 C 113.865 262.050,114.784 264.120,115.198 265.000 C 115.613 265.880,116.514 267.860,117.200 269.400 C 119.469 274.492,119.875 275.383,120.806 277.316 C 122.029 279.857,121.697 280.124,117.065 280.326 C 112.909 280.508,111.070 279.934,110.591 278.304 C 110.308 277.343,108.534 273.158,106.955 269.725 C 106.430 268.584,106.000 267.409,106.000 267.114 C 106.000 266.819,105.724 266.184,105.387 265.703 C 105.050 265.222,104.503 264.057,104.172 263.114 C 103.841 262.171,103.246 260.680,102.851 259.800 C 102.456 258.920,101.877 257.608,101.564 256.885 C 101.035 255.665,100.937 255.612,100.197 256.152 C 99.439 256.706,99.394 257.291,99.268 268.139 L 99.135 279.544 97.908 279.972 C 96.311 280.529,91.669 280.522,90.058 279.960 L 88.796 279.520 88.898 243.072 L 89.000 206.624 90.000 206.118 C 91.293 205.463,96.706 205.463,98.000 206.117 M224.922 207.979 C 224.351 208.226,223.888 208.957,223.596 210.079 C 223.349 211.025,222.877 212.640,222.546 213.666 C 222.215 214.692,221.782 217.212,221.583 219.266 C 221.384 221.320,221.217 223.045,221.211 223.100 C 221.205 223.155,220.238 223.200,219.062 223.200 C 216.166 223.200,215.598 223.863,215.606 227.231 C 215.614 230.548,216.169 231.594,218.300 232.302 L 220.000 232.867 220.000 251.246 C 220.000 265.781,220.113 269.896,220.541 270.919 C 220.838 271.631,221.211 273.078,221.369 274.135 C 221.537 275.253,221.980 276.333,222.429 276.717 C 222.853 277.081,223.200 277.564,223.200 277.792 C 223.200 278.517,225.994 280.800,226.882 280.800 C 227.352 280.800,228.048 281.081,228.427 281.425 C 229.833 282.697,236.400 282.486,236.400 281.169 C 236.400 280.966,236.960 280.800,237.643 280.800 C 239.788 280.800,242.390 277.585,242.396 274.929 C 242.402 272.036,241.854 271.600,238.221 271.600 C 236.615 271.600,234.737 271.488,234.050 271.350 L 232.800 271.100 232.800 251.750 L 232.800 232.400 235.967 232.400 C 240.646 232.400,242.000 231.162,242.000 226.886 C 242.000 223.812,241.082 223.200,236.474 223.200 L 232.800 223.200 232.798 217.300 C 232.795 211.011,232.404 208.641,231.297 208.216 C 230.075 207.747,225.825 207.589,224.922 207.979 M230.800 209.591 C 231.277 209.892,231.441 211.266,231.600 216.323 C 231.847 224.158,231.753 224.000,236.169 224.000 C 240.119 224.000,240.400 224.223,240.400 227.349 C 240.400 230.763,239.895 231.200,235.947 231.200 C 231.189 231.200,231.519 229.622,231.672 251.673 C 231.824 273.619,231.722 273.236,237.264 272.703 C 240.540 272.389,240.800 272.559,240.800 275.016 C 240.800 282.272,228.144 283.245,223.370 276.356 C 221.549 273.729,221.206 269.606,221.203 250.333 C 221.200 231.066,221.355 232.295,218.750 230.975 L 216.800 229.987 216.800 227.407 C 216.800 224.505,217.233 224.000,219.725 224.000 C 221.875 224.000,222.173 223.207,223.637 213.600 C 224.299 209.261,224.353 209.199,227.491 209.206 C 228.981 209.209,230.470 209.382,230.800 209.591 M135.900 220.032 C 134.839 220.650,134.868 220.726,139.877 230.780 C 145.781 242.629,145.833 240.104,139.406 253.400 C 133.775 265.049,133.785 263.800,139.327 263.800 L 143.390 263.800 144.484 261.639 C 145.086 260.450,145.786 258.830,146.041 258.039 C 146.295 257.248,146.755 256.150,147.062 255.600 C 147.369 255.050,147.845 253.804,148.119 252.830 C 148.948 249.887,149.836 250.688,152.018 256.348 C 154.984 264.041,154.943 264.000,159.627 264.000 C 164.400 264.000,164.507 263.811,162.266 259.337 C 156.339 247.500,154.000 242.477,154.000 241.586 C 154.000 241.031,155.888 236.802,158.196 232.188 C 160.504 227.575,162.394 223.648,162.396 223.463 C 162.398 223.278,162.763 222.665,163.206 222.101 C 163.962 221.141,163.970 221.030,163.344 220.338 C 162.382 219.275,155.623 219.245,154.733 220.300 C 154.165 220.974,152.000 225.620,152.000 226.167 C 152.000 226.677,149.607 231.549,149.246 231.771 C 148.861 232.010,148.509 231.348,147.985 229.400 C 147.180 226.409,144.983 221.548,143.920 220.407 C 143.078 219.502,137.275 219.231,135.900 220.032 M143.754 221.751 C 144.064 222.494,144.505 223.217,144.732 223.358 C 144.960 223.499,145.348 224.587,145.595 225.776 C 145.842 226.965,146.304 228.154,146.622 228.418 C 146.940 228.682,147.201 229.101,147.202 229.349 C 147.218 232.436,149.477 234.051,150.493 231.700 C 150.754 231.095,151.281 230.182,151.664 229.672 C 152.046 229.161,152.477 227.957,152.622 226.996 C 152.766 226.035,153.228 224.937,153.648 224.557 C 154.068 224.176,154.520 223.189,154.652 222.364 C 154.931 220.618,156.891 220.069,161.007 220.584 C 163.103 220.845,163.133 220.867,162.397 221.603 C 161.983 222.017,161.527 222.983,161.383 223.750 C 161.239 224.517,160.879 225.238,160.583 225.351 C 160.287 225.465,159.814 226.328,159.532 227.269 C 159.250 228.211,158.710 229.290,158.332 229.668 C 157.954 230.046,157.522 231.010,157.372 231.810 C 157.222 232.609,156.853 233.358,156.553 233.473 C 156.253 233.589,155.795 234.429,155.536 235.341 C 155.276 236.254,154.690 237.420,154.232 237.932 C 152.922 239.401,153.079 243.675,154.521 245.798 C 155.115 246.671,155.600 247.669,155.600 248.015 C 155.600 248.361,156.050 249.255,156.600 250.000 C 157.150 250.745,157.600 251.656,157.600 252.024 C 157.600 252.391,157.934 253.121,158.342 253.646 C 158.750 254.171,159.299 255.261,159.562 256.068 C 159.826 256.875,160.297 257.748,160.610 258.008 C 160.923 258.268,161.294 259.094,161.435 259.844 C 161.575 260.593,162.043 261.655,162.474 262.203 L 163.258 263.200 159.929 263.187 C 155.988 263.171,155.043 262.624,154.619 260.110 C 154.466 259.209,154.014 258.174,153.613 257.811 C 153.212 257.449,152.759 256.308,152.606 255.276 C 152.454 254.244,152.046 253.084,151.700 252.697 C 151.354 252.311,150.875 251.608,150.636 251.137 C 149.458 248.817,147.960 249.357,147.408 252.300 C 147.257 253.101,146.804 254.177,146.400 254.691 C 145.997 255.204,145.547 256.328,145.402 257.189 C 145.256 258.050,144.878 258.969,144.560 259.233 C 144.243 259.496,143.786 260.497,143.544 261.456 L 143.105 263.200 139.590 263.200 L 136.075 263.200 136.508 261.700 C 136.747 260.875,137.250 259.840,137.628 259.400 C 138.005 258.960,138.444 257.985,138.603 257.233 C 138.762 256.482,139.223 255.513,139.626 255.079 C 140.030 254.646,140.479 253.731,140.623 253.046 C 140.768 252.361,141.212 251.440,141.611 251.000 C 142.009 250.560,142.461 249.520,142.614 248.689 C 142.768 247.858,143.211 247.008,143.600 246.800 C 143.989 246.592,144.433 245.751,144.587 244.931 C 144.740 244.112,145.121 243.077,145.433 242.631 C 146.154 241.602,146.161 240.437,145.447 240.163 C 145.143 240.046,144.786 239.272,144.653 238.443 C 144.521 237.613,144.067 236.623,143.646 236.241 C 143.224 235.860,142.768 234.954,142.632 234.229 C 142.496 233.503,142.046 232.603,141.632 232.229 C 141.218 231.854,140.763 230.929,140.621 230.172 C 140.479 229.416,140.032 228.483,139.628 228.098 C 139.224 227.714,138.764 226.797,138.606 226.059 C 138.448 225.322,138.005 224.405,137.622 224.022 C 136.884 223.284,136.269 221.064,136.686 220.647 C 136.822 220.511,138.341 220.400,140.061 220.400 L 143.189 220.400 143.754 221.751 M192.589 222.543 C 192.155 222.842,191.133 223.209,190.317 223.358 C 189.502 223.508,188.358 224.028,187.775 224.515 C 185.570 226.356,183.600 228.320,183.600 228.675 C 183.600 228.878,183.173 229.624,182.650 230.332 C 182.110 231.065,181.584 232.496,181.431 233.654 C 181.282 234.773,180.855 236.155,180.480 236.727 C 179.471 238.268,179.444 266.092,180.450 267.627 C 180.808 268.173,181.230 269.567,181.390 270.726 C 181.571 272.042,182.040 273.262,182.640 273.974 C 183.168 274.602,183.600 275.323,183.600 275.578 C 183.600 276.053,186.091 278.800,186.522 278.800 C 186.655 278.800,187.214 279.250,187.764 279.800 C 188.314 280.350,189.228 280.800,189.796 280.800 C 190.364 280.800,191.309 281.115,191.897 281.500 C 193.415 282.494,199.195 282.490,200.296 281.494 C 200.718 281.112,201.589 280.797,202.231 280.794 C 202.874 280.791,203.779 280.566,204.243 280.294 C 206.981 278.689,208.414 277.484,208.636 276.600 C 208.774 276.050,209.027 275.600,209.198 275.600 C 209.814 275.600,210.800 272.842,210.800 271.120 C 210.800 270.152,210.978 269.182,211.196 268.964 C 211.414 268.746,211.707 267.729,211.848 266.705 C 212.273 263.602,210.722 262.400,206.293 262.400 C 202.227 262.400,201.585 262.875,201.293 266.096 C 201.188 267.253,200.866 268.470,200.579 268.801 C 200.291 269.131,199.868 269.896,199.638 270.501 C 199.028 272.104,195.488 272.129,193.775 270.542 L 192.633 269.483 192.468 262.142 L 192.302 254.800 200.923 254.800 C 210.373 254.800,210.800 254.698,210.800 252.433 C 210.800 251.822,211.115 250.710,211.500 249.961 C 212.490 248.035,212.539 235.890,211.562 234.384 C 211.211 233.843,210.821 232.617,210.695 231.661 C 210.569 230.704,210.091 229.522,209.633 229.035 C 209.175 228.547,208.800 227.949,208.800 227.705 C 208.800 227.020,204.609 223.601,203.757 223.591 C 203.341 223.586,202.215 223.226,201.256 222.791 C 199.142 221.832,193.842 221.680,192.589 222.543 M262.596 222.406 C 262.458 222.629,261.763 223.056,261.050 223.353 C 259.622 223.950,257.979 225.364,257.278 226.600 C 256.863 227.332,256.823 227.297,256.812 226.189 C 256.787 223.683,255.986 223.200,251.857 223.200 C 249.515 223.200,247.984 223.376,247.680 223.680 C 246.986 224.374,246.986 279.626,247.680 280.320 C 248.000 280.640,249.769 280.800,253.000 280.800 C 256.231 280.800,258.000 280.640,258.320 280.320 C 258.682 279.958,258.800 274.306,258.800 257.339 C 258.800 232.735,258.777 232.991,261.058 232.563 C 263.392 232.125,263.512 232.328,263.663 236.960 C 263.834 242.225,264.005 242.443,268.163 242.710 C 273.356 243.044,274.522 241.436,274.548 233.910 C 274.563 229.782,274.466 229.085,273.739 228.102 C 273.284 227.487,272.788 226.591,272.635 226.110 C 272.283 225.003,270.167 223.200,269.218 223.200 C 268.822 223.200,268.274 222.930,268.000 222.600 C 267.423 221.904,263.004 221.746,262.596 222.406 M288.589 222.550 C 288.155 222.852,287.046 223.226,286.125 223.381 C 285.204 223.535,283.997 224.053,283.443 224.531 C 282.890 225.009,281.866 225.850,281.170 226.400 C 280.473 226.950,279.665 227.954,279.374 228.632 C 279.084 229.309,278.566 230.096,278.223 230.381 C 277.324 231.127,277.308 240.851,278.205 241.748 C 279.561 243.103,285.915 243.077,287.254 241.709 C 287.733 241.220,288.074 239.851,288.355 237.293 C 288.841 232.854,288.749 233.030,290.914 232.424 C 295.262 231.207,295.879 232.150,295.953 240.120 L 296.000 245.241 294.600 245.826 C 293.830 246.148,293.200 246.568,293.200 246.761 C 293.200 246.953,292.525 247.236,291.700 247.388 C 290.875 247.540,289.840 247.990,289.400 248.386 C 288.960 248.783,288.150 249.244,287.600 249.410 C 285.873 249.932,279.200 255.770,279.200 256.759 C 279.200 257.001,278.859 257.541,278.442 257.958 C 278.026 258.374,277.557 259.469,277.402 260.390 C 277.246 261.312,276.868 262.546,276.562 263.133 C 275.815 264.564,275.807 270.345,276.550 271.411 C 276.852 271.845,277.231 272.984,277.392 273.942 C 277.553 274.901,277.994 275.994,278.373 276.373 C 278.751 276.751,279.183 277.379,279.333 277.769 C 279.482 278.158,279.946 278.566,280.365 278.675 C 280.784 278.784,281.211 279.198,281.314 279.595 C 281.426 280.022,282.051 280.432,282.851 280.602 C 283.593 280.760,284.534 281.184,284.942 281.545 C 285.948 282.433,290.261 282.443,291.618 281.560 C 292.158 281.209,293.279 280.795,294.109 280.641 C 294.939 280.486,295.837 280.009,296.105 279.580 C 296.787 278.489,298.250 278.599,299.037 279.800 C 299.822 280.999,307.036 281.361,307.960 280.248 C 308.771 279.271,308.380 231.491,307.554 230.542 C 307.198 230.134,306.784 229.260,306.633 228.600 C 306.229 226.834,302.624 223.707,300.605 223.372 C 299.722 223.225,298.514 222.857,297.920 222.553 C 296.448 221.799,289.669 221.797,288.589 222.550 M201.037 223.751 C 203.831 224.351,204.068 224.473,206.099 226.345 C 210.798 230.676,212.247 238.827,210.374 250.386 C 209.757 254.192,210.257 254.000,200.970 254.000 C 190.695 254.000,190.800 253.961,190.801 257.764 C 190.804 265.119,192.032 270.585,193.975 271.895 C 197.560 274.311,202.000 271.407,202.000 266.647 C 202.000 263.890,202.396 263.600,206.165 263.600 C 210.504 263.600,210.583 263.696,210.292 268.584 C 209.809 276.673,204.943 280.800,195.887 280.800 C 184.721 280.800,180.897 274.135,180.513 254.000 C 180.044 229.405,186.061 220.536,201.037 223.751 M268.066 223.667 C 271.441 224.678,273.219 227.751,273.499 233.059 C 273.827 239.284,272.521 242.000,269.197 242.000 C 265.556 242.000,265.362 241.791,265.061 237.556 C 264.611 231.210,262.738 229.311,259.600 232.017 L 258.200 233.225 258.084 256.290 C 258.005 272.102,257.832 279.520,257.535 279.878 C 256.956 280.576,249.172 280.612,248.480 279.920 C 247.786 279.226,247.786 225.174,248.480 224.480 C 250.072 222.888,256.000 224.254,256.000 226.213 C 256.000 228.151,257.032 228.164,258.799 226.247 C 261.288 223.548,264.594 222.627,268.066 223.667 M299.778 224.021 C 303.089 224.880,305.672 227.775,306.745 231.827 C 307.909 236.221,308.098 278.689,306.958 279.635 C 304.794 281.431,299.932 280.362,299.457 277.985 L 299.222 276.811 297.311 277.867 C 293.099 280.194,292.279 280.502,289.761 280.704 C 280.699 281.431,275.783 274.447,277.653 263.500 C 278.578 258.087,283.720 251.517,288.071 250.189 C 288.582 250.033,289.270 249.672,289.600 249.386 C 289.930 249.100,291.100 248.524,292.200 248.106 C 293.300 247.688,294.965 246.860,295.900 246.268 L 297.600 245.190 297.600 241.215 C 297.600 233.851,296.203 230.800,292.832 230.800 C 289.176 230.800,287.477 233.157,286.634 239.399 C 286.331 241.647,285.540 242.111,282.415 241.874 C 279.299 241.638,278.614 240.990,278.235 237.915 C 276.926 227.285,287.093 220.727,299.778 224.021 M193.696 231.911 C 192.618 232.811,192.293 233.486,191.822 235.800 C 189.818 245.647,190.563 247.393,196.657 247.127 C 201.626 246.909,201.600 246.940,201.600 241.387 C 201.600 232.657,197.987 228.326,193.696 231.911 M198.118 232.540 C 199.636 233.174,200.805 237.510,200.802 242.492 C 200.800 245.683,200.768 245.703,195.799 245.519 L 192.600 245.400 192.488 241.600 C 192.307 235.468,192.722 233.544,194.405 232.720 C 196.125 231.879,196.494 231.861,198.118 232.540 M292.581 255.461 C 285.467 260.707,285.723 273.300,292.930 272.678 C 297.107 272.318,297.506 271.409,297.560 262.133 C 297.613 252.980,297.021 252.186,292.581 255.461 M296.000 262.174 C 296.000 271.260,295.900 271.600,293.229 271.600 C 289.152 271.600,288.577 270.765,288.640 264.936 C 288.683 260.990,288.974 260.303,291.748 257.610 C 296.138 253.348,296.000 253.200,296.000 262.174 " stroke="none" fill="#48d985" fill-rule="evenodd"></path></g></svg>